# xmcd CD database file
#
# Track frame offsets:
#	150
#	16726
#	38750
#	56466
#	82517
#	99164
#	111977
#	129555
#	143923
#	169048
#	189748
#	214379
#	233542
#	254153
#	278001
#
# Disc length: 4022 seconds
#
# Revision: 0
# Processed by: cddbd v1.5.2PL0 Copyright (c) Steve Scherf et al.
# Submitted via: CDex 1.51
#
DISCID=c50fb40f
DTITLE=Jackie Ryan - Best of Love Songs
DYEAR=2010
DGENRE=Jazz
TTITLE0=When I Grow Too Old To Dream
TTITLE1=You'd Be So Nice To Come Home To
TTITLE2=While We're Young
TTITLE3=Make It Last
TTITLE4=Let There Be Love
TTITLE5=Luiza
TTITLE6=This Heart Of Mine
TTITLE7=Once In Everyone's Life
TTITLE8=Bésame Mucho
TTITLE9=Seasons Of The Heart
TTITLE10=Serenade In Blue
TTITLE11=Now Or Never
TTITLE12=Historia De Un Amor
TTITLE13=The Very Thought Of You
TTITLE14=You Are There
EXTD=YEAR: 2010
EXTT0=
EXTT1=
EXTT2=
EXTT3=
EXTT4=
EXTT5=
EXTT6=
EXTT7=
EXTT8=
EXTT9=
EXTT10=
EXTT11=
EXTT12=
EXTT13=
EXTT14=
PLAYORDER=
